# xmcd
#
# Track frame offsets:
# 150
# 3284
# 23364
# 45181
# 71440
# 99816
# 137590
# 166753
# 194398
# 226015
# 253538
# 286797
# 313997
#
# Disc length: 4615 seconds
#
# Revision: 0
# Processed by: cddbd v1.5.2PL0 Copyright (c) Steve Scherf et al.
# Submitted via: Audion 3.0.2 (http://www.panic.com/audion/)
#
DISCID=8f12050d
DTITLE=Bob Dylan - 2003 London III D1 11/25 Doberman
DYEAR=1900
DGENRE=
TTITLE0=Intro
TTITLE1=The Wicked Messenger
TTITLE2=Yea! Heavy And A Bottle Of Bread
TTITLE3=Tweedle Dee and Tweedle Dum
TTITLE4=Blind Willie McTell
TTITLE5=Tangled Up In Blue
TTITLE6=Million Miles
TTITLE7=Boots Of Spanish Leather
TTITLE8=Highway 61 Revisited
TTITLE9=Love Sick
TTITLE10=Jokerman
TTITLE11=A Hard Rain's A Gonna Fall
TTITLE12=Honest With Me
EXTD=
EXTT0=
EXTT1=
EXTT2=
EXTT3=
EXTT4=
EXTT5=
EXTT6=
EXTT7=
EXTT8=
EXTT9=
EXTT10=
EXTT11=
EXTT12=
PLAYORDER=
